<svg xmlns="http://www.w3.org/2000/svg" xmlns:xlink="http://www.w3.org/1999/xlink" version="1.1" x="0px" y="0px" viewBox="0 0 32 40" style="enable-background:new 0 0 32 32;" xml:space="preserve"><style type="text/css">
	.st0{display:none;}
	.st1{display:inline;}
</style><g><path d="M20.429,17.328c-3.404,0-6.173,2.77-6.173,6.174s2.769,6.173,6.173,6.173s6.173-2.769,6.173-6.173   S23.833,17.328,20.429,17.328z M20.429,28.225c-2.604,0-4.723-2.119-4.723-4.723s2.119-4.723,4.723-4.723s4.723,2.119,4.723,4.723   S23.033,28.225,20.429,28.225z"/><path d="M20.429,19.43c-2.246,0-4.072,1.827-4.072,4.072s1.827,4.072,4.072,4.072s4.072-1.827,4.072-4.072   S22.674,19.43,20.429,19.43z M21.979,21.491l0.314-0.313c0.127-0.125,0.333-0.126,0.459,0.001c0.127,0.127,0.126,0.333,0,0.46   l-0.314,0.313c-0.063,0.063-0.146,0.095-0.229,0.095c-0.083,0-0.167-0.032-0.23-0.096C21.851,21.824,21.852,21.618,21.979,21.491z    M17.468,23.827c-0.18,0-0.325-0.146-0.325-0.325s0.146-0.325,0.325-0.325h0.444c0.18,0,0.325,0.146,0.325,0.325   s-0.146,0.325-0.325,0.325H17.468z M18.879,25.512l-0.314,0.313c-0.063,0.063-0.146,0.095-0.229,0.095   c-0.083,0-0.167-0.032-0.23-0.096c-0.127-0.127-0.126-0.333,0-0.46l0.314-0.313c0.127-0.126,0.333-0.125,0.459,0.001   C19.006,25.179,19.006,25.385,18.879,25.512z M18.879,21.951c-0.063,0.063-0.147,0.096-0.23,0.096s-0.166-0.032-0.229-0.095   l-0.314-0.313c-0.127-0.127-0.127-0.333,0-0.46c0.126-0.127,0.332-0.126,0.459-0.001l0.314,0.313   C19.006,21.618,19.006,21.824,18.879,21.951z M20.754,26.462c0,0.18-0.146,0.325-0.325,0.325s-0.325-0.146-0.325-0.325v-0.444   c0-0.18,0.146-0.325,0.325-0.325s0.325,0.146,0.325,0.325V26.462z M20.754,20.985c0,0.18-0.146,0.325-0.325,0.325   s-0.325-0.146-0.325-0.325v-0.444c0-0.18,0.146-0.325,0.325-0.325s0.325,0.146,0.325,0.325V20.985z M22.752,25.824   c-0.063,0.063-0.146,0.096-0.23,0.096c-0.083,0-0.166-0.032-0.229-0.095l-0.314-0.313c-0.127-0.127-0.127-0.333,0-0.46   s0.333-0.126,0.459-0.001l0.314,0.313C22.878,25.491,22.879,25.697,22.752,25.824z M23.389,23.827h-0.444   c-0.18,0-0.325-0.146-0.325-0.325s0.146-0.325,0.325-0.325h0.444c0.18,0,0.325,0.146,0.325,0.325S23.569,23.827,23.389,23.827z"/><path d="M27.008,3.087c-0.141-0.14-0.307-0.265-0.5-0.376c-0.746-0.437-1.67-0.507-2.604-0.19   c-1.236,0.416-2.281,1.408-2.793,2.653c-3.19,6.44-8.054,11.302-14.467,14.467c-1.246,0.516-2.261,1.589-2.67,2.809   c-0.313,0.935-0.244,1.859,0.196,2.605c0.107,0.179,0.232,0.347,0.369,0.494c1.439,1.533,4.635,1.588,8.549,0.146   c0.265-0.096,0.526-0.207,0.786-0.316c-0.171-0.597-0.269-1.226-0.269-1.878c0-3.763,3.061-6.824,6.824-6.824   c0.083,0,0.164,0.01,0.247,0.013c1.589-1.878,2.81-3.933,3.62-6.113c0.687-1.861,0.841-3.182,0.85-3.961   c0.002-0.179,0.161-0.3,0.329-0.321c0.18,0.002,0.324,0.149,0.322,0.329c-0.009,0.83-0.171,2.229-0.891,4.179   c-0.786,2.12-1.96,4.116-3.459,5.959c0.861,0.13,1.669,0.418,2.393,0.838c1.413-1.856,2.53-3.861,3.305-5.973   C28.586,7.713,28.535,4.521,27.008,3.087z M12.258,23.445c-0.919,0.34-1.8,0.588-2.621,0.736c-0.02,0.004-0.039,0.006-0.059,0.006   c-0.154,0-0.291-0.11-0.319-0.267c-0.032-0.177,0.085-0.346,0.262-0.378c0.783-0.143,1.628-0.381,2.511-0.707   c0.167-0.063,0.355,0.022,0.417,0.192C12.512,23.196,12.426,23.383,12.258,23.445z M18.874,14.038   c-2.973,3.432-6.633,6.235-10.879,8.333l-0.203,0.093c-0.041,0.018-0.083,0.025-0.125,0.025c-0.127,0-0.248-0.075-0.3-0.199   c-0.069-0.166,0.009-0.356,0.174-0.426l0.167-0.076c4.167-2.059,7.759-4.81,10.675-8.176c0.118-0.136,0.323-0.148,0.458-0.033   C18.977,13.697,18.991,13.902,18.874,14.038z"/></g></svg>
